<svg width="81" height="32" viewBox="0 0 81 32" fill="none" xmlns="http://www.w3.org/2000/svg">
<path d="M64.6716 31.9976C73.5075 31.9976 80.6703 24.8347 80.6703 15.9988C80.6703 7.16291 73.5075 0 64.6716 0C55.8357 0 48.6729 7.16291 48.6729 15.9988C48.6729 24.8347 55.8357 31.9976 64.6716 31.9976Z" fill="url(#paint0_linear_943_9604)"/>
<path d="M13.791 32C10.773 32 8.23407 31.5954 6.17406 30.7886C4.14196 29.9516 2.61905 28.7984 1.60299 27.3336C0.586942 25.8386 0.0800781 24.0878 0.0800781 22.0836H10.2964C10.3568 22.4718 10.5498 22.802 10.88 23.0717C11.2078 23.3414 11.6263 23.5507 12.1355 23.6995C12.6726 23.8483 13.2702 23.9227 13.9281 23.9227C14.7652 23.9227 15.4511 23.8041 15.9881 23.5646C16.5252 23.2949 16.9298 22.9206 17.1972 22.4416C17.4669 21.9324 17.5994 21.3488 17.5994 20.6908C17.5994 19.9422 17.4646 19.3307 17.1972 18.8517C16.9275 18.3425 16.5113 17.9682 15.9416 17.731C15.4046 17.4613 14.7326 17.3265 13.9258 17.3265C13.119 17.3265 12.3866 17.4451 11.8193 17.6845C11.252 17.8938 10.8335 18.1937 10.5638 18.582H0.931051L4.11174 0.49762H26.158V8.70977H11.7751L11.1032 12.6136L11.1939 12.7042C12.0007 12.1369 12.9121 11.6882 13.9281 11.358C14.9442 11.0279 16.1974 10.8651 17.6924 10.8651C19.7245 10.8651 21.5009 11.2534 23.0238 12.0323C24.5769 12.781 25.772 13.9016 26.609 15.3967C27.4763 16.8615 27.9087 18.6564 27.9087 20.7815C27.9087 23.0252 27.3716 24.9992 26.2951 26.7058C25.2186 28.3799 23.6213 29.6819 21.5009 30.6096C19.3804 31.5373 16.8112 32 13.7933 32H13.791Z" fill="#DA2441"/>
<path d="M40.4035 0C49.2388 0 56.4023 7.16354 56.4023 15.9988C56.4023 24.8341 49.2388 31.9976 40.4035 31.9976C31.5683 31.9976 24.4048 24.8341 24.4048 15.9988C24.4048 7.16354 31.5683 0 40.4035 0Z" fill="#0F3CC9"/>
<path d="M35.707 9.65139H35.1746C34.1632 9.65139 33.6098 10.221 33.6098 11.3626V16.8684C33.6098 18.2867 33.1309 18.7843 32.0079 18.7843C31.1243 18.7843 30.4059 18.3983 29.8362 17.6985C29.7804 17.6241 28.6226 18.1774 28.6226 19.5399C28.6226 21.0117 30.0036 21.9161 32.5635 21.9161C35.6745 21.9161 37.3136 20.3514 37.3136 16.9265V11.365C37.3136 10.2257 36.7603 9.65371 35.7093 9.65371L35.707 9.65139ZM48.1066 12.3392C45.0863 12.3392 43.0798 14.255 43.0798 17.1102C43.0798 19.9654 45.0119 21.9161 48.0508 21.9161C51.0896 21.9161 53.059 20.0375 53.059 17.1288C53.059 14.255 51.0896 12.3392 48.1066 12.3392ZM48.0717 19.2074C46.8929 19.2074 46.0838 18.3425 46.0838 17.1079C46.0838 15.8733 46.9138 15.0269 48.0717 15.0269C49.2296 15.0269 50.0596 15.8919 50.0596 17.1265C50.0596 18.3239 49.2133 19.2074 48.0717 19.2074ZM40.5292 12.4298H40.1595C39.2574 12.4298 38.5761 12.853 38.5761 14.1434V20.0351C38.5761 21.3418 39.2388 21.7487 40.1967 21.7487H40.5664C41.4685 21.7487 42.1126 21.307 42.1126 20.0351V14.1434C42.1126 12.8181 41.4871 12.4298 40.5292 12.4298ZM40.3269 8.15869C39.1853 8.15869 38.4669 8.80274 38.4669 9.81647C38.4669 10.8302 39.2039 11.4905 40.3827 11.4905C41.5615 11.4905 42.2428 10.8465 42.2428 9.81647C42.2428 8.78646 41.5057 8.15869 40.3269 8.15869Z" fill="white"/>
<defs>
<linearGradient id="paint0_linear_943_9604" x1="80.6727" y1="0" x2="48.6727" y2="31.9998" gradientUnits="userSpaceOnUse">
<stop offset="0.15" stop-color="#FBBE4C"/>
<stop offset="0.400817" stop-color="#FFFD8C"/>
<stop offset="0.597648" stop-color="#FDB34A"/>
<stop offset="0.7" stop-color="#BD7F2E"/>
<stop offset="0.85" stop-color="#BD7F2E"/>
</linearGradient>
</defs>
</svg>
